<svg width="85" height="53" viewBox="0 0 85 53" fill="none" xmlns="http://www.w3.org/2000/svg">
<g clip-path="url(#clip0_94_241)">
<path d="M53.5868 1.07551C52.7452 1.88663 52.1084 2.60686 51.7541 3.14528C51.2946 3.83054 51.2503 3.95641 51.3223 4.36196C51.3777 4.66264 51.6932 5.38287 51.8371 5.5367C51.9479 5.65558 52.186 6.75339 52.103 6.78836C51.9202 6.86527 51.8206 7.06107 51.804 7.3967L51.7873 7.74633L52.0365 7.75332C52.413 7.76031 52.878 7.8582 53.0331 7.96308C53.1106 8.00504 53.2878 8.19383 53.4317 8.36865C53.6531 8.63436 53.703 8.66933 53.7418 8.57144C53.7861 8.47354 53.8581 8.48752 54.3397 8.72526C55.1702 9.12384 55.8567 9.54338 56.1447 9.82308C56.2886 9.96293 56.4658 10.1028 56.5322 10.1308C56.7537 10.2147 56.8202 10.4664 56.6374 10.5293C56.5765 10.5433 56.4713 10.6832 56.3939 10.83C56.3219 10.9838 56.2056 11.1656 56.1391 11.2356C55.9675 11.4313 55.9952 11.6551 56.2443 12.0537C56.3661 12.2495 56.4658 12.4523 56.4658 12.5012C56.4658 12.6271 55.9565 13.3193 55.7958 13.4242C55.6741 13.5011 54.8269 13.9626 54.6387 14.0535C54.5833 14.0815 54.5999 14.0325 54.6719 13.9277C54.7384 13.8368 54.9045 13.5431 55.0484 13.2844C55.3474 12.7319 55.3806 12.3963 55.1869 11.9977C55.0927 11.8089 55.0762 11.6901 55.1038 11.4453C55.1315 11.1936 55.1149 11.1097 55.0262 10.9978C54.9654 10.9209 54.8934 10.858 54.8601 10.858C54.8325 10.858 54.8048 10.795 54.8048 10.7181C54.8048 10.5293 54.6664 10.4664 54.4836 10.5783C54.4007 10.6202 54.1238 10.6762 53.8691 10.6832C53.4816 10.7041 53.3874 10.6901 53.3265 10.5923C53.2656 10.5014 53.238 10.4944 53.2213 10.5573C53.2048 10.6062 53.1494 10.6482 53.094 10.6482C53.0441 10.6482 52.95 10.6971 52.8891 10.7531C52.8226 10.809 52.7563 10.83 52.7341 10.809C52.6621 10.7181 52.7065 10.5992 52.8448 10.5153C53.0608 10.3965 52.9943 10.2077 52.7009 10.1168C52.4628 10.0468 52.4573 10.0399 52.5791 9.95594L52.7119 9.86504L52.5348 9.66925C52.3134 9.41752 51.8371 9.26369 51.6601 9.38255C51.5991 9.42451 51.4995 9.45947 51.4386 9.45947C51.3279 9.45947 51.0288 9.6133 50.4475 9.96293C50.2537 10.0748 50.0765 10.1517 50.0489 10.1308C50.0211 10.1098 49.9879 10.1308 49.9713 10.1797C49.9548 10.2286 49.8107 10.3126 49.6446 10.3545C49.4841 10.4035 49.2793 10.5153 49.1852 10.6062C49.0412 10.7531 49.0301 10.788 49.0854 10.9489C49.1298 11.0677 49.1354 11.1516 49.1021 11.1726C49.0689 11.2006 49.0467 11.2635 49.0467 11.3265C49.0467 11.5222 49.2682 12.0397 49.3678 12.0817C49.4785 12.1236 49.6059 12.4872 49.5506 12.5921C49.5339 12.6271 49.4565 12.683 49.3789 12.711C49.3015 12.7389 49.1741 12.8438 49.091 12.9347C49.008 13.0326 48.9083 13.0956 48.864 13.0746C48.8141 13.0536 48.7367 13.0956 48.6813 13.1725C48.6315 13.2424 48.5263 13.3053 48.4543 13.3053C48.3214 13.3053 48.3158 13.2844 48.1553 12.7459C48.0723 12.4732 47.2473 11.3614 46.81 10.9349C46.2452 10.3825 44.706 9.65526 42.8235 9.03993C41.8547 8.71827 41.6 8.66933 40.7197 8.57843C39.2303 8.43858 37.7354 8.45256 37.1098 8.61339C36.2848 8.83015 35.1056 9.30564 34.5131 9.66226C33.954 9.99789 32.4646 11.2216 31.8556 11.8439C31.241 12.4732 30.7649 13.3683 30.4049 14.5639L30.2277 15.1584L29.9399 15.1373C29.7848 15.1234 29.3917 15.1723 29.065 15.2353C28.6665 15.3191 28.1682 15.3611 27.5093 15.3611C25.7542 15.3541 24.658 15.1514 21.4522 14.2423C19.0992 13.571 18.6728 13.5011 18.385 13.7738L18.2189 13.9277L17.9032 13.5291C17.7261 13.3123 17.3386 12.655 17.0395 12.0817C16.7405 11.5013 16.4194 10.8929 16.3253 10.7251L16.1537 10.4244L16.3751 10.1797C16.807 9.71121 16.8901 8.74624 16.5301 8.33368C16.436 8.22181 16.3308 8.13091 16.2977 8.13091C16.2644 8.13091 16.1149 8.03301 15.9655 7.91414C15.4892 7.52956 15.0242 7.36173 14.5813 7.40369C14.1217 7.45263 9.5817 7.03309 8.70691 6.86527C8.05359 6.7394 7.7989 6.81632 7.88749 7.117C7.92071 7.21489 7.9041 7.22887 7.82105 7.19391C7.73246 7.16595 5.33511 6.94219 5.05829 6.94219C4.94202 6.94219 4.95309 7.09602 5.09704 7.46662L5.21884 7.78128L5.05829 7.99106C4.90879 8.18684 4.90326 8.20783 4.98077 8.38264C5.01953 8.48752 5.31296 8.8721 5.62302 9.2427C6.05487 9.76714 6.35385 10.0468 6.92412 10.4664C7.3283 10.7741 7.76015 11.1377 7.88195 11.2775C8.00376 11.4174 8.29721 11.6551 8.52974 11.8089C8.76781 11.9558 8.9616 12.1026 8.9616 12.1236C8.9616 12.1516 8.56849 12.3474 8.09235 12.5641C6.3317 13.3543 6.0604 13.4172 5.30743 13.1655C5.08043 13.0886 4.8036 13.0256 4.6984 13.0256C4.58767 13.0256 4.27762 12.9627 4.00633 12.8928C3.23674 12.683 2.73843 12.641 2.52251 12.7669C2.42839 12.8229 2.18478 12.8928 1.98545 12.9138C1.78613 12.9417 1.53146 12.9907 1.42072 13.0326C1.22694 13.0956 1.21587 13.1095 1.17711 13.4871C1.13282 13.9556 1.17711 14.4241 1.27677 14.501C1.38197 14.585 1.89133 14.6549 2.12941 14.6199C2.30105 14.592 2.36195 14.627 2.5502 14.8577C2.73843 15.0883 2.77165 15.1653 2.7938 15.501C2.80487 15.7037 2.8547 16.0114 2.899 16.1723C3.04295 16.6826 3.04295 16.6826 2.50037 16.6547L2.01867 16.6268L1.80274 17.1162C0.678815 19.6754 0.0365673 21.2068 0.0088843 21.3607L-0.0187988 21.5565H0.50718C0.800621 21.5565 1.04977 21.5774 1.06084 21.6124C1.09406 21.6752 0.778474 22.4934 0.706499 22.5214C0.678815 22.5354 0.656668 22.6194 0.656668 22.7032C0.656668 22.7871 0.628986 22.8919 0.590229 22.9409C0.50718 23.0458 0.379838 23.5003 0.379838 23.6961C0.379838 23.9409 0.518253 23.9409 0.756328 23.6891C1.08852 23.3255 3.26996 20.1859 3.41391 19.8642C3.48034 19.7035 3.53571 19.4727 3.53571 19.3538C3.53571 19.207 3.60215 19.0182 3.71842 18.8224C3.82361 18.6545 4.08938 18.1651 4.31083 17.7455C4.73162 16.9554 5.47906 15.9345 5.89432 15.5848C6.06594 15.445 6.29848 15.3541 6.85214 15.2283C7.25632 15.1373 7.70478 15.0114 7.8432 14.9556C7.98715 14.8927 8.33043 14.8087 8.60171 14.7668C8.87855 14.7248 9.16092 14.6758 9.23843 14.6619C9.31595 14.6479 9.60384 14.6059 9.87514 14.5709C10.152 14.543 10.462 14.4801 10.5672 14.4311C10.6724 14.3892 10.9769 14.3542 11.2371 14.3542C11.5029 14.3542 11.9292 14.3052 12.1894 14.2493C12.7929 14.1165 13.0586 14.1794 13.7231 14.5989C13.9999 14.7738 14.2546 14.9136 14.2934 14.9066C14.3654 14.8857 14.6754 15.0534 14.7197 15.1373C14.7363 15.1653 14.8139 15.2213 14.8858 15.2632C15.0851 15.3751 15.2124 15.473 15.5225 15.7597C15.6775 15.8995 15.9377 16.1024 16.1038 16.2072C16.2699 16.3121 16.5855 16.5848 16.7959 16.8015C17.2388 17.2631 17.4382 17.396 17.7261 17.4659C17.87 17.5008 17.9697 17.5778 18.0306 17.7035C18.0804 17.8015 18.3683 18.2211 18.6672 18.6336L19.2154 19.3888L18.9496 19.9272C18.7559 20.3117 18.4126 20.8013 17.7925 21.5844L16.9066 22.6893L16.7295 22.4235C16.6298 22.2697 16.4527 21.9899 16.3419 21.7873C16.1149 21.3956 16.0318 21.3537 15.8381 21.5284C15.7218 21.6334 15.7218 21.6403 15.8048 21.8572C15.8547 21.9829 15.9433 22.1578 15.9986 22.2486C16.1426 22.4794 16.1316 22.5214 15.9266 22.5493C15.7716 22.5704 15.7385 22.5983 15.7274 22.7731C15.6996 23.0319 15.8104 23.3465 15.982 23.5143C16.1647 23.6961 16.126 23.7311 15.8436 23.6332C15.6333 23.5633 15.5668 23.4794 15.0408 22.5633C14.7308 22.0179 14.4539 21.5985 14.4373 21.6403C14.4207 21.6752 14.3875 21.6543 14.3654 21.5844C14.3321 21.4725 14.321 21.4725 14.2214 21.5914C14.0995 21.7312 14.0774 21.906 14.1715 22.0249C14.2767 22.1578 14.2767 22.6963 14.1715 22.871L14.0774 23.0319L13.474 22.85C13.1418 22.7521 12.8262 22.6752 12.7708 22.6893C12.6379 22.7172 13.9943 23.7311 14.4373 23.9339C14.6256 24.0247 14.775 24.1227 14.775 24.1576C14.775 24.1996 14.7419 24.2135 14.7031 24.1926C14.6643 24.1717 14.4317 24.1087 14.1882 24.0458C13.1362 23.7801 12.0233 23.7311 10.8662 23.8919C10.1409 23.9968 9.57616 23.9618 8.57403 23.7521C7.83212 23.5913 7.61067 23.5913 7.47225 23.7521C7.3283 23.9128 6.96841 24.7869 6.96841 24.9687C6.96841 25.0526 6.94626 25.1295 6.91858 25.1576C6.8909 25.1785 6.85214 25.2834 6.83001 25.3882C6.80786 25.5421 6.66944 25.6959 6.20436 26.0805C5.56211 26.619 4.6984 27.5559 4.1835 28.2762C3.84576 28.7447 3.13154 29.9054 3.0208 30.1711C2.98205 30.2621 2.88239 30.4718 2.7938 30.6397C2.26783 31.6745 1.64219 33.8912 1.42626 35.4714C1.19372 37.1706 1.25462 39.2823 1.57575 40.8277C1.65326 41.2122 1.74185 41.6598 1.77507 41.8346C1.98545 42.9814 3.01527 45.4357 3.72949 46.4986C4.24994 47.2678 4.89218 48.0788 5.41262 48.6103C6.05487 49.2676 6.74696 49.8689 6.86321 49.876C6.91304 49.876 6.99609 49.9388 7.04592 50.0087C7.10129 50.0857 7.20095 50.1626 7.27293 50.1836C7.35044 50.2116 7.49993 50.3094 7.6162 50.4004C7.72693 50.4982 7.84873 50.5681 7.88749 50.5472C7.92625 50.5263 7.98715 50.5542 8.02037 50.6101C8.05359 50.6661 8.16433 50.729 8.25845 50.7569C8.35811 50.778 8.46331 50.827 8.49653 50.8619C8.57957 50.9457 9.44882 51.2744 9.5817 51.2744C9.63706 51.2744 9.79209 51.3443 9.91943 51.4283C10.1464 51.589 10.1852 51.589 12.1175 51.589C14.2878 51.589 14.8913 51.5191 15.1903 51.2325C15.2844 51.1485 15.6277 50.9527 15.9544 50.7989C16.281 50.6382 16.6575 50.4353 16.7849 50.3373C16.9121 50.2465 17.2167 50.0228 17.4603 49.8479C17.8534 49.5683 18.158 49.3026 19.0715 48.4285C19.7581 47.7711 20.7878 46.2748 21.3636 45.086C21.7124 44.3799 22.1776 43.1003 22.399 42.2541C22.5042 41.8486 22.6038 41.506 22.6149 41.4919C22.6259 41.4779 22.7146 41.5548 22.8142 41.6598C23.0468 41.9115 23.3955 42.1143 23.6004 42.1143C23.7555 42.1143 23.7555 42.1212 23.7223 42.408C23.6723 42.7996 23.7886 44.4638 23.8884 44.7504C24.0267 45.163 24.1043 45.184 26.1362 45.2539C27.1494 45.2959 28.8048 45.3447 29.807 45.3728L31.6341 45.4217L31.8002 45.2469C31.8943 45.1491 32.0272 45.0441 32.1047 45.0161C32.1822 44.9882 32.315 44.8902 32.3981 44.7994C32.4867 44.7085 32.5974 44.6315 32.6472 44.6315C32.697 44.6315 33.2507 44.6805 33.8708 44.7295C34.5851 44.7924 35.0502 44.8064 35.1332 44.7645C35.2052 44.7295 35.3325 44.7014 35.4156 44.7014C35.4986 44.7014 35.698 44.6386 35.8641 44.5546C36.1464 44.4218 36.2516 44.4148 37.5251 44.4427C39.6124 44.4987 40.7418 44.6106 43.0118 44.9882C43.2388 45.0232 43.6983 45.1491 44.0361 45.2609C44.5344 45.4287 44.8499 45.4777 45.7524 45.5476C47.0701 45.6454 49.091 45.6665 49.6115 45.5895C50.1983 45.4986 50.1928 45.5196 50.0157 44.4148C49.9326 43.8974 49.8661 43.275 49.8661 43.0233C49.8661 42.7715 49.8107 42.0163 49.7389 41.3451C49.4785 38.8908 49.4232 37.9747 49.4509 36.2336C49.4841 34.2688 49.5228 33.9051 49.7887 33.4087C50.0433 32.9193 50.7188 32.199 51.0233 32.087C51.134 32.0452 51.1285 32.0731 50.9514 32.4857C50.5472 33.4505 50.1983 34.8072 49.9768 36.2756C49.7389 37.8908 49.8274 40.555 50.1762 41.9744C50.2205 42.1493 50.309 42.5198 50.3755 42.8065C50.5084 43.359 51.2725 45.2609 51.6601 45.9812C52.0254 46.6733 52.3576 47.1977 52.7895 47.7852C53.0165 48.0859 53.1992 48.3656 53.1992 48.3935C53.1992 48.4984 54.2457 49.5403 54.8048 50.0017C55.436 50.5122 56.0837 50.9039 56.8368 51.2255C57.1413 51.3584 57.4513 51.5191 57.5288 51.5821C57.7559 51.7709 58.8354 51.8688 60.5629 51.8688C62.0633 51.8617 62.163 51.8547 62.5561 51.7009C62.783 51.6101 63.0322 51.5261 63.1097 51.5191C63.4863 51.4841 64.6655 50.9597 64.7707 50.785C64.8316 50.687 65.4628 50.2955 65.5625 50.2955C65.6234 50.2955 65.7895 50.1626 65.9334 49.9949C66.0774 49.834 66.393 49.5263 66.631 49.3164C67.5003 48.5544 68.7183 46.8621 69.3329 45.5616C69.9363 44.2889 70.4845 42.4429 70.7059 40.9256C70.8057 40.2613 70.8278 39.8488 70.8278 38.5831C70.8333 37.2405 70.8167 36.9468 70.7059 36.2756C70.5067 35.0589 70.3184 34.3177 69.9641 33.3037C69.5654 32.185 69.4769 31.9892 68.9066 30.8914C68.3363 29.8006 67.229 28.388 66.4041 27.7028C66.0995 27.4441 65.8171 27.1854 65.7728 27.1225C65.7064 27.0245 65.7119 27.0106 65.8282 27.0106C65.9002 27.0175 66.1328 27.0595 66.3376 27.1085C66.6698 27.1924 66.7196 27.1854 66.7528 27.0944C66.8026 26.9126 66.3985 26.5491 65.6289 26.0735C64.8372 25.5911 64.7984 25.5702 64.0787 25.3113C62.401 24.6961 61.6259 24.5493 60.1643 24.5702C59.6493 24.5772 59.2341 24.5561 59.2286 24.5352C59.223 24.4583 60.9781 22.6194 61.7477 21.8921L62.4066 21.2627L62.8274 21.3047C63.0599 21.3327 63.4087 21.3816 63.608 21.4236C63.8074 21.4585 64.1229 21.5075 64.3112 21.5284C64.6323 21.5704 64.6544 21.5634 64.7431 21.3886C64.8594 21.1649 65.1805 19.9692 65.3355 19.1789C65.5736 17.9693 65.4573 16.7107 64.9922 15.487C64.5161 14.2213 63.907 13.2144 62.6669 11.6271C62.174 10.9908 61.709 10.3545 61.6314 10.2077C61.2439 9.4385 59.976 7.4876 59.1456 6.38978L58.686 5.77444L58.8134 5.5367C59.0736 5.05423 59.0458 4.71159 58.6971 4.1382C58.5254 3.85151 58.3925 3.73265 57.9718 3.47393C57.6894 3.29911 57.2907 3.10333 57.0859 3.0334C56.8811 2.97047 56.6374 2.85858 56.5378 2.79565C56.4381 2.73273 56.3052 2.67678 56.2443 2.67678C56.0726 2.67678 55.9398 2.57189 55.4692 2.08242C54.7716 1.3622 54.0851 0.718895 54.0131 0.725887C53.9744 0.725887 53.7861 0.886713 53.5868 1.07551ZM20.8376 20.7593C20.9373 20.8152 21.0369 20.9132 21.0536 20.962C21.0923 21.095 20.7712 21.4026 20.201 21.7802C19.9407 21.955 19.5088 22.2486 19.232 22.4306L18.7337 22.7731L18.9885 22.3886C19.1268 22.1858 19.3926 21.7732 19.5864 21.4864C19.9351 20.9552 20.2729 20.6475 20.5221 20.6475C20.594 20.6475 20.738 20.6963 20.8376 20.7593ZM22.7146 22.2627C22.864 22.3326 23.152 22.5354 23.3568 22.7102C23.5672 22.8851 23.7721 23.0249 23.8164 23.0249C23.8994 23.0249 24.4808 23.5003 24.5084 23.5913C24.5195 23.6192 24.7632 23.8849 25.051 24.1786L25.577 24.717L25.5437 25.2484L25.505 25.7869L25.7265 26.0735C26.0365 26.4792 26.3577 26.619 26.8338 26.57L27.2047 26.5351L27.4927 26.9267C27.7086 27.2133 27.7861 27.3812 27.7861 27.528C27.7861 27.7238 27.7806 27.7238 27.5812 27.6819C26.9612 27.5489 26.7562 27.5489 26.5016 27.6957L26.247 27.8357L25.8594 27.6049C25.1008 27.1434 24.0932 26.8357 23.1188 26.7588C22.6149 26.7168 22.4876 26.6819 21.9726 26.4023C21.3969 26.0946 20.356 25.5981 19.9795 25.4583C19.8742 25.4232 19.7636 25.3603 19.7303 25.3324C19.7027 25.3044 19.5864 25.2555 19.4812 25.2275C19.376 25.1995 19.1046 25.0667 18.8777 24.9337L18.4735 24.6961L18.6563 24.5352C18.7614 24.4443 19.3427 24.0108 19.9518 23.5633C20.5608 23.1227 21.1588 22.6682 21.2806 22.5563C21.4024 22.4445 21.6072 22.3117 21.7402 22.2627C21.8674 22.2067 21.9726 22.1368 21.9726 22.1018C21.9726 22.011 22.3768 22.1018 22.7146 22.2627ZM58.9406 30.5208C59.1012 30.9193 59.2341 31.3318 59.2341 31.4648C59.2341 31.5626 58.8964 31.7164 58.841 31.6465C58.7912 31.5696 58.3925 30.4228 58.4147 30.4019C58.4368 30.381 58.758 30.1641 58.7745 30.1571C58.7856 30.1571 58.8576 30.325 58.9406 30.5208ZM62.4564 30.4439C62.9602 30.6606 63.907 31.29 64.3389 31.7026C64.8538 32.192 65.6953 33.2968 65.8891 33.7373C65.9777 33.9402 66.094 34.1708 66.1493 34.2477C66.3043 34.4575 66.6919 35.7371 66.8524 36.5483C67.0463 37.5343 67.0906 38.8697 66.9577 39.9117C66.8082 41.1354 66.6532 41.464 66.3043 41.3381C66.2047 41.3031 66.0552 41.2752 65.9611 41.2752C65.6455 41.2752 65.6345 41.2192 65.7673 40.5689C66.0441 39.2053 65.9667 37.66 65.5458 36.2965C65.2414 35.3037 64.8925 34.6393 64.2448 33.8352C63.5915 33.0241 63.165 32.6046 62.6613 32.2828C62.4564 32.1571 62.2793 31.9962 62.2571 31.9333C62.2349 31.8633 62.1686 31.5417 62.1132 31.2131C62.0523 30.8843 61.9858 30.5417 61.9692 30.4509C61.9249 30.2551 62.0079 30.2481 62.4564 30.4439ZM9.07233 31.0103L9.57616 31.4507L9.36577 31.5067C9.24951 31.5417 8.8564 31.5837 8.49653 31.6116C8.10896 31.6395 7.82659 31.6885 7.81551 31.7375C7.80444 31.7795 7.93732 31.9333 8.10342 32.0801C8.4024 32.3388 8.43562 32.3459 8.96714 32.3808C9.42113 32.4087 9.52633 32.4367 9.57062 32.5346C9.59831 32.6046 9.68689 32.6815 9.76441 32.7024C9.94712 32.7584 9.91943 32.8912 9.7035 33.0171C9.33809 33.2338 9.24397 33.5275 9.45989 33.7793C9.56509 33.9051 9.56509 33.9121 9.28826 34.2547C8.86747 34.7652 8.38026 35.7301 8.20308 36.4015C8.07574 36.9049 8.05359 37.0937 8.05359 37.9187L8.04805 38.8628L7.71585 39.3943C7.53315 39.6879 7.22864 40.1913 7.04592 40.52C6.38153 41.6877 6.07148 41.45 5.73929 39.513C5.57872 38.5552 5.56765 36.9119 5.7116 36.0308C6.05487 33.9681 6.85768 32.276 8.09789 31.0312C8.3415 30.7795 8.54635 30.5767 8.55742 30.5767C8.56296 30.5767 8.7955 30.7725 9.07233 31.0103ZM57.2575 31.7445C57.3959 32.185 57.4347 32.3878 57.3959 32.4437C57.3129 32.5696 57.2409 32.5556 57.2022 32.4087C57.1855 32.3459 57.0859 32.0591 56.9807 31.7725C56.8422 31.3738 56.8146 31.241 56.8644 31.192C57.0139 31.0731 57.0693 31.1571 57.2575 31.7445ZM56.2 32.7234C56.4824 33.3527 56.5378 33.5835 56.4048 33.5835C56.3772 33.5835 56.355 33.5206 56.355 33.4367C56.355 33.3457 56.2997 33.2758 56.1834 33.2199C56.0893 33.178 55.9952 33.073 55.9675 32.9821C55.9398 32.8912 55.8402 32.7584 55.7515 32.6885C55.591 32.5696 55.591 32.5626 55.6962 32.4017C55.7515 32.3109 55.8014 32.199 55.8014 32.143C55.8014 31.9263 55.9011 32.0801 56.2 32.7234ZM55.0651 33.6674C55.1869 33.8142 55.1869 33.8213 55.0927 33.954C55.0262 34.045 54.993 34.2198 54.9875 34.5204C54.9599 35.5554 54.9599 35.5763 54.6166 35.9679C54.384 36.2336 54.3066 36.3734 54.3066 36.5202C54.3066 36.709 54.384 37.0727 54.4781 37.3244C54.5169 37.4224 54.5058 37.5411 54.4449 37.7231C54.4007 37.8699 54.3619 38.0517 54.3619 38.1286C54.3619 38.2125 54.301 38.3453 54.2346 38.4293C54.0629 38.6321 54.002 38.9257 54.1127 39.0376C54.157 39.0866 54.1958 39.2264 54.1958 39.3523C54.1958 39.4781 54.2457 39.7299 54.301 39.9187C54.3564 40.1075 54.4338 40.3592 54.4726 40.4781C54.5058 40.5969 54.5944 40.7297 54.6719 40.7787C54.7882 40.8416 54.838 40.8277 54.9709 40.7018C55.0651 40.6179 55.1481 40.562 55.1592 40.5829C55.1702 40.5969 55.2421 40.8416 55.3197 41.1214L55.4582 41.6249L55.1481 42.0374C54.5888 42.7645 54.4671 42.7506 54.2013 41.9535C53.3874 39.4711 53.5148 36.7022 54.5557 34.3246C54.7218 33.9402 54.8601 33.6044 54.8601 33.5694C54.8601 33.4716 54.9321 33.5066 55.0651 33.6674ZM17.8478 38.5552C18.695 38.9956 18.7448 39.0585 18.6563 39.5062C18.5511 40.0165 18.4292 40.2893 18.2576 40.4011C17.9365 40.6179 16.962 40.4921 16.1703 40.1424C15.7994 39.9816 15.7661 39.8906 16.0263 39.7858C16.2423 39.6949 16.2368 39.6949 16.2257 39.4292C16.2146 39.2473 16.2368 39.1844 16.3253 39.1565C16.4416 39.1215 16.4692 38.9328 16.3862 38.7649C16.3087 38.618 16.3751 38.4853 16.5966 38.3383C16.9012 38.1356 17.1004 38.1706 17.8478 38.5552ZM9.94712 42.2051C10.39 42.5339 10.8385 42.7157 11.4199 42.8135C12.0455 42.9183 12.6766 42.8135 14.6367 42.2541C15.218 42.0933 15.7329 41.9324 15.7827 41.8975C15.8436 41.8556 16.1316 41.8625 16.519 41.9115C17.0838 41.9884 17.189 42.0234 17.3828 42.1981C17.643 42.4359 17.6597 42.6038 17.4326 42.9324C17.3441 43.0583 17.2665 43.2121 17.2665 43.268C17.2665 43.324 17.2388 43.3729 17.2112 43.3729C17.178 43.3729 16.951 43.6106 16.7073 43.8974C15.7274 45.0581 14.8304 45.6385 13.3688 46.065C12.7597 46.2399 12.6379 46.2538 11.9015 46.2188C10.7721 46.1768 10.1132 45.9601 9.1277 45.3238C8.31935 44.7994 7.34491 43.7924 7.26739 43.4009C7.17327 42.9394 7.63835 41.8906 8.26952 41.1423L8.6294 40.7158L9.11663 41.3311C9.38238 41.6667 9.75333 42.0583 9.94712 42.2051ZM65.6178 42.6317C65.8947 42.7576 66.0441 42.9324 66.0441 43.1352C66.0441 43.219 65.9002 43.5407 65.7175 43.8414C64.7209 45.5267 63.1928 46.7083 61.5042 47.0859C60.9948 47.1977 59.7767 47.1977 59.3006 47.0859C58.8908 46.988 57.7559 46.4636 57.2409 46.1349C56.7648 45.8273 56.1724 45.2959 55.7571 44.7924C55.4858 44.4707 55.4138 44.3379 55.4138 44.177C55.4138 43.9463 55.5689 43.5897 55.8457 43.1981L56.0339 42.9394L56.3993 43.4498C57.1357 44.4638 58.0825 45.219 59.0403 45.5546C59.4223 45.6874 59.6272 45.7084 60.4798 45.7084C61.41 45.7084 61.5097 45.6944 61.9636 45.5196C62.5173 45.3028 63.0932 44.9533 63.5804 44.5407C63.9735 44.205 64.6766 43.331 64.9257 42.8625C65.1251 42.4989 65.2358 42.4638 65.6178 42.6317Z" fill="#FFC107"/>
</g>
<defs>
<clipPath id="clip0_94_241">
<rect width="85" height="53" fill="white"/>
</clipPath>
</defs>
</svg>
