<svg width="35" height="31" viewBox="0 0 35 31" fill="none" xmlns="http://www.w3.org/2000/svg">
<path d="M27.0289 3.08035C26.8785 3.17633 26.8457 3.28104 26.8648 3.63297C26.9496 5.1832 27.8768 6.69271 29.4414 7.82702C30.8364 8.83918 32.5513 9.43833 34.3019 9.52558C34.6219 9.54012 34.7122 9.53722 34.7942 9.49941C35.0459 9.38597 35.0732 9.02241 34.8407 8.87117C34.7806 8.83045 34.6739 8.813 34.3976 8.79846C32.7373 8.70829 31.2001 8.18767 29.9283 7.28895C28.4567 6.24771 27.6361 4.96215 27.5486 3.55735C27.5295 3.24323 27.4802 3.12689 27.3353 3.0629C27.2094 3.00764 27.1329 3.01055 27.0289 3.08035Z" fill="#FFC107"/>
<path d="M25.4746 4.01137C25.2914 4.13934 25.2586 4.36911 25.3379 4.97117C25.4993 6.18692 26.0545 7.29215 27.0201 8.31594C28.4807 9.87199 30.7126 10.9598 33.0102 11.2361C33.5682 11.303 34.1317 11.3262 34.2438 11.2855C34.4736 11.207 34.5802 10.9249 34.4654 10.7038C34.3806 10.538 34.2958 10.5089 33.8335 10.4857C32.3127 10.413 30.9178 10.0174 29.572 9.27575C27.485 8.12689 26.1749 6.36725 26.0737 4.57852C26.0545 4.24405 26.0053 4.0899 25.8877 4.01137C25.7701 3.93575 25.5841 3.93575 25.4746 4.01137Z" fill="#FFC107"/>
<path d="M23.9296 4.96499C23.8339 4.97953 23.6916 5.10169 23.6397 5.21221C23.6014 5.28783 23.5959 5.36636 23.6096 5.71247C23.7163 8.493 25.6884 10.8925 28.9159 12.1722C30.2234 12.69 31.9794 13.0273 33.3798 13.0273C33.6862 13.0273 33.7463 13.0186 33.8257 12.9692C34.0992 12.7918 34.0883 12.3758 33.8038 12.2013C33.7217 12.149 33.6424 12.1403 33.161 12.1228C30.2124 12.0152 27.5538 10.9303 25.9619 9.17649C25.0128 8.13525 24.5368 7.03584 24.452 5.68921C24.4247 5.24421 24.4055 5.18604 24.266 5.05225C24.2086 4.99698 24.0281 4.95045 23.9296 4.96499Z" fill="#FFC107"/>
<path d="M22.1104 6.07625C21.8943 6.1286 21.7712 6.28566 21.7494 6.53579C21.7165 6.91971 21.8424 7.75445 22.0174 8.3187C22.879 11.073 25.699 13.4493 29.3861 14.5254C30.4146 14.825 31.7931 15.0344 32.7586 15.0344C33.1443 15.0344 33.24 15.0053 33.3494 14.8512C33.5054 14.636 33.4589 14.316 33.251 14.159C33.1717 14.0979 33.117 14.0892 32.7504 14.0688C31.577 14.0019 30.7893 13.8856 29.8921 13.65C26.7986 12.8385 24.1947 10.9276 23.1662 8.71135C22.8681 8.07148 22.7176 7.47524 22.6739 6.77429C22.652 6.40491 22.6192 6.28275 22.518 6.18968C22.4058 6.08498 22.2499 6.04135 22.1104 6.07625Z" fill="#FFC107"/>
<path d="M3.68878 13.2514C2.09414 13.3765 0.718323 14.5079 0.206835 16.1105C0.168542 16.2297 0.108367 16.4595 0.0728085 16.6195L0.0126334 16.9103L0.00442773 21.9711C-0.0065132 27.4885 -0.00924843 27.3256 0.14666 27.919C0.526857 29.35 1.54983 30.4377 2.89557 30.842C3.46997 31.0136 2.86001 31.0049 13.0433 30.9962L22.3567 30.9874L22.6303 30.9205C24.2823 30.5163 25.4229 29.2685 25.7566 27.4972C25.7949 27.2907 25.8004 26.7032 25.8086 22.3347C25.8141 19.1411 25.8086 17.3 25.7922 17.1081C25.7347 16.506 25.6062 16.0319 25.3682 15.5433C25.1877 15.171 25.0674 14.982 24.8349 14.694C24.1647 13.8709 23.2347 13.3678 22.1817 13.2601C21.9437 13.234 3.99787 13.2252 3.68878 13.2514Z" fill="#FFC107"/>
</svg>
