<svg width="16" height="25" viewBox="0 0 16 25" fill="none" xmlns="http://www.w3.org/2000/svg">
<path d="M7.43122 0.0214844C6.36134 0.107422 5.42061 0.365234 4.48182 0.830078C1.67315 2.2207 -0.0868539 5.17188 0.00567616 8.33008C0.0423026 9.51172 0.298688 10.5859 0.788326 11.6113C0.998447 12.0508 1.1411 12.3008 1.4264 12.7344C1.5517 12.9219 3.07652 15.4082 4.81917 18.2559C6.55989 21.1055 7.99218 23.4375 7.99989 23.4375C8.0076 23.4375 9.43989 21.1055 11.1806 18.2578C12.9233 15.4082 14.4481 12.9219 14.5734 12.7344C14.8587 12.3008 15.0013 12.0508 15.2115 11.6113C16.023 9.91406 16.2139 7.96094 15.7493 6.10156C15.2789 4.23047 14.1647 2.5957 12.5878 1.4707C11.2462 0.511719 9.59796 -0.0117188 7.95362 0.00195312C7.77242 0.00390625 7.53724 0.0117188 7.43122 0.0214844ZM8.65531 3.4668C9.5035 3.62305 10.2225 3.99609 10.8143 4.58984C12.2968 6.07617 12.4047 8.45703 11.0649 10.082C10.4192 10.8672 9.49001 11.377 8.47411 11.5039C8.25435 11.5312 7.74543 11.5312 7.52567 11.5039C5.88134 11.2988 4.53772 10.1074 4.12519 8.48828C3.85339 7.42383 4.02495 6.26953 4.59363 5.33789C5.22977 4.30078 6.25531 3.62695 7.47941 3.44727C7.73001 3.41016 8.40664 3.42188 8.65531 3.4668Z" fill="#FFC107"/>
</svg>
