<svg width="24" height="24" viewBox="0 0 24 24" fill="none" xmlns="http://www.w3.org/2000/svg">
<path d="M11.4134 0.0130925C10.009 0.158662 8.7633 0.73666 7.76475 1.71283C5.72746 3.69729 5.17896 6.86772 6.41459 9.49654C6.46683 9.61 7.23031 10.9843 8.11032 12.5514C8.99034 14.1205 9.70962 15.4114 9.70962 15.4199C9.70962 15.4285 8.3233 15.4349 6.63158 15.4306C4.93786 15.4264 3.22605 15.4306 2.82623 15.4392L2.10092 15.4521L2.04868 15.6704C2.01854 15.7882 1.94621 16.0793 1.88594 16.3148C1.77745 16.7365 1.38365 18.2907 1.18876 19.0656C1.1325 19.284 1.04209 19.6393 0.987844 19.8577C0.931588 20.076 0.843185 20.4271 0.788937 20.6391C0.73469 20.851 0.588021 21.4333 0.459435 21.9342C-0.0529017 23.955 -0.0187459 23.8052 0.0194281 23.8908C0.0455472 23.9508 0.0696572 23.9722 0.123905 23.9829C0.164088 23.9936 5.52051 24 12.0302 24C21.1237 24 23.8762 23.9936 23.9184 23.9743C23.9506 23.9593 23.9787 23.9208 23.9948 23.8737C24.0189 23.7945 23.9948 23.6939 23.1328 20.3501C22.7832 18.9885 22.3131 17.1582 22.076 16.2398L21.8711 15.4371H17.9994C15.8717 15.4371 14.1298 15.4349 14.1298 15.4328C14.1298 15.4285 14.847 14.1483 15.723 12.5856C16.601 11.0207 17.3585 9.66137 17.4087 9.56076C17.7443 8.89927 17.9914 7.99802 18.0697 7.15458C18.0999 6.81848 18.0818 5.94506 18.0376 5.64322C17.8246 4.18538 17.2741 2.99513 16.3439 1.97828C15.3654 0.910059 14.1278 0.250714 12.7133 0.0452035C12.4361 0.00452961 11.6746 -0.014737 11.4134 0.0130925ZM12.3135 4.10189C12.6289 4.15541 13.0006 4.31168 13.2859 4.51291C13.4507 4.62851 13.74 4.92393 13.8666 5.1059C14.1097 5.45483 14.2564 5.83803 14.3227 6.29614C14.4332 7.06895 14.178 7.87814 13.6375 8.45828C13.1815 8.94637 12.5727 9.21824 11.9297 9.21824C11.0095 9.21824 10.1737 8.66593 9.76186 7.78823C9.40623 7.03255 9.43034 6.10348 9.82414 5.37563C10.3345 4.43156 11.3029 3.93491 12.3135 4.10189Z" fill="#FFC107"/>
</svg>
